<svg xmlns="http://www.w3.org/2000/svg" xmlns:xlink="http://www.w3.org/1999/xlink" width="500" zoomAndPan="magnify" viewBox="0 0 375 374.999991" height="500" preserveAspectRatio="xMidYMid meet" version="1.0"><defs><clipPath id="d6126f4bfe"><path d="M 59 0 L 325.785156 0 L 325.785156 130 L 59 130 Z M 59 0 " clip-rule="nonzero"/></clipPath><clipPath id="9a13e1fb82"><path d="M 63 226 L 325.785156 226 L 325.785156 375 L 63 375 Z M 63 226 " clip-rule="nonzero"/></clipPath></defs><g clip-path="url(#d6126f4bfe)"><path fill="#27a7df" d="M 63.585938 0.0117188 C 135.566406 -0.00390625 207.546875 0.0117188 279.527344 0.00390625 C 294.726562 -0.152344 309.996094 6.984375 319.011719 19.300781 C 324.265625 26.378906 327.285156 35.109375 327.300781 43.929688 C 327.382812 52.0625 324.933594 60.164062 320.480469 66.964844 C 313.1875 78.226562 300.757812 85.789062 287.539062 87.777344 C 282.367188 88.636719 277.113281 88.324219 271.902344 88.382812 C 229.652344 88.390625 187.40625 88.371094 145.15625 88.394531 C 132.160156 88.363281 119.164062 88.394531 106.167969 88.378906 C 95.726562 102 85.320312 115.648438 74.886719 129.269531 C 69.632812 125.6875 64.382812 122.097656 59.132812 118.507812 C 71.472656 102.332031 83.855469 86.191406 96.179688 70.011719 C 157.449219 69.96875 218.71875 70.015625 279.984375 69.988281 C 286.027344 69.945312 292.074219 68.058594 296.988281 64.527344 C 302.085938 60.914062 305.945312 55.476562 307.289062 49.355469 C 308.675781 43.28125 307.496094 36.714844 304.175781 31.457031 C 300.09375 24.871094 293.042969 20.367188 285.46875 18.941406 C 281.894531 18.199219 278.230469 18.410156 274.609375 18.382812 C 204.269531 18.378906 133.925781 18.382812 63.585938 18.378906 C 63.582031 12.257812 63.585938 6.136719 63.585938 0.0117188 Z M 63.585938 0.0117188 " fill-opacity="1" fill-rule="nonzero"/></g><path fill="#17749a" d="M 93.777344 36.386719 C 155.398438 36.371094 217.023438 36.378906 278.652344 36.378906 C 281.136719 36.421875 283.851562 36.03125 286.046875 37.484375 C 290.253906 39.917969 290.929688 46.347656 287.683594 49.828125 C 286.210938 51.453125 284.011719 52.339844 281.828125 52.277344 C 219.144531 52.273438 156.460938 52.277344 93.777344 52.273438 C 93.777344 46.976562 93.777344 41.679688 93.777344 36.386719 Z M 93.777344 36.386719 " fill-opacity="1" fill-rule="nonzero"/><path fill="#8bc341" d="M 116.679688 105.339844 C 123.226562 96.035156 133.863281 89.769531 145.15625 88.394531 C 187.40625 88.367188 229.652344 88.390625 271.902344 88.382812 C 271.90625 93.835938 271.90625 99.292969 271.902344 104.75 C 232.71875 104.75 193.535156 104.75 154.347656 104.75 C 151.816406 104.761719 149.253906 104.636719 146.746094 105.105469 C 139.761719 106.261719 133.332031 110.675781 130.015625 116.953125 C 126.957031 122.570312 126.695312 129.589844 129.332031 135.421875 C 132.882812 143.550781 141.53125 148.921875 150.347656 149.007812 C 189.246094 148.992188 228.148438 149.007812 267.046875 149.003906 C 270.484375 149.023438 273.933594 148.878906 277.355469 149.324219 C 286.574219 150.421875 295.421875 154.625 301.976562 161.203125 C 307.320312 166.535156 311.125 173.4375 312.542969 180.863281 C 314.261719 189.535156 312.695312 198.785156 308.257812 206.433594 C 301.253906 218.730469 287.390625 226.59375 273.273438 226.761719 C 213.503906 226.808594 153.738281 226.714844 93.972656 226.804688 L 93.6875 226.808594 C 93.628906 221.222656 93.675781 215.636719 93.664062 210.050781 C 153.082031 210.050781 212.5 210.054688 271.917969 210.050781 C 279.039062 210.128906 286.171875 206.933594 290.644531 201.375 C 294.6875 196.488281 296.394531 189.761719 295.03125 183.554688 C 293.503906 176.109375 287.726562 169.886719 280.632812 167.308594 C 277.445312 166.097656 274.007812 165.652344 270.609375 165.804688 C 231.410156 165.816406 192.214844 165.804688 153.015625 165.8125 C 149.722656 165.835938 146.410156 165.710938 143.164062 165.09375 C 133.066406 163.300781 123.652344 157.703125 117.472656 149.511719 C 112.648438 143.195312 109.855469 135.332031 109.785156 127.378906 C 109.652344 119.542969 112.140625 111.722656 116.679688 105.339844 Z M 116.679688 105.339844 " fill-opacity="1" fill-rule="nonzero"/><path fill="#57833b" d="M 145.257812 127.824219 C 145.074219 123.878906 148.597656 120.289062 152.550781 120.398438 C 189.441406 120.386719 226.328125 120.394531 263.214844 120.394531 C 263.214844 125.28125 263.21875 130.160156 263.214844 135.042969 C 226.335938 135.042969 189.460938 135.054688 152.589844 135.039062 C 148.695312 135.164062 145.1875 131.707031 145.257812 127.824219 Z M 145.257812 127.824219 " fill-opacity="1" fill-rule="nonzero"/><path fill="#57833b" d="M 122.597656 179.636719 C 172.238281 179.632812 221.875 179.632812 271.511719 179.636719 C 275.394531 179.445312 278.960938 182.824219 278.964844 186.703125 C 279.242188 190.746094 275.597656 194.460938 271.539062 194.269531 C 221.894531 194.273438 172.246094 194.273438 122.597656 194.269531 C 122.597656 189.394531 122.59375 184.511719 122.597656 179.636719 Z M 122.597656 179.636719 " fill-opacity="1" fill-rule="nonzero"/><g clip-path="url(#9a13e1fb82)"><path fill="#f49122" d="M 63.585938 226.8125 C 73.621094 226.804688 83.65625 226.820312 93.6875 226.808594 L 93.972656 226.804688 C 156.125 226.828125 218.277344 226.800781 280.425781 226.820312 C 295.488281 226.929688 310.5 234.207031 319.304688 246.511719 C 324.53125 253.710938 327.445312 262.582031 327.300781 271.488281 C 327.234375 280.292969 324.175781 289.003906 318.902344 296.042969 C 310.054688 308.015625 295.273438 315.070312 280.441406 315.1875 C 258.820312 315.195312 237.195312 315.1875 215.574219 315.191406 C 206.09375 335.128906 196.613281 355.066406 187.132812 375 C 177.636719 355.074219 168.171875 335.128906 158.6875 315.195312 C 127.117188 315.183594 95.546875 315.195312 63.976562 315.191406 C 63.976562 309.066406 63.976562 302.9375 63.980469 296.8125 C 135.839844 296.808594 207.707031 296.816406 279.566406 296.808594 C 286.015625 296.835938 292.488281 294.785156 297.625 290.871094 C 302.8125 286.976562 306.589844 281.125 307.566406 274.679688 C 308.511719 268.867188 307.140625 262.753906 303.90625 257.84375 C 299.601562 251.195312 292.25 246.769531 284.457031 245.578125 C 281.648438 245.09375 278.789062 245.214844 275.957031 245.203125 C 205.167969 245.199219 134.375 245.203125 63.585938 245.199219 C 63.585938 239.070312 63.585938 232.941406 63.585938 226.8125 Z M 63.585938 226.8125 " fill-opacity="1" fill-rule="nonzero"/></g><path fill="#f15a2b" d="M 93.777344 263.1875 C 156.449219 263.183594 219.125 263.1875 281.792969 263.1875 C 283.652344 263.140625 285.53125 263.742188 286.957031 264.945312 C 290.601562 267.90625 290.65625 274.175781 287.09375 277.214844 C 285.652344 278.488281 283.722656 279.140625 281.804688 279.085938 C 219.125 279.066406 156.449219 279.097656 93.773438 279.066406 C 93.78125 273.773438 93.773438 268.480469 93.777344 263.1875 Z M 93.777344 263.1875 " fill-opacity="1" fill-rule="nonzero"/></svg>